<svg xmlns="http://www.w3.org/2000/svg" xmlns:xlink="http://www.w3.org/1999/xlink" viewBox="0 0 56.16 32.99"><defs><style>.cls-1{fill:url(#Gradient_bez_nazwy_15);}.cls-2{fill:url(#Gradient_bez_nazwy_14);}.cls-3{fill:#ee4061;}.cls-4{fill:url(#Gradient_bez_nazwy_16);}.cls-5{fill:#fff;}</style><linearGradient id="Gradient_bez_nazwy_15" x1="9.33" y1="5.93" x2="37.37" y2="22.37" gradientUnits="userSpaceOnUse"><stop offset="0" stop-color="#785aa5"/><stop offset="0.51" stop-color="#c3497a"/><stop offset="0.79" stop-color="#ee4061"/></linearGradient><linearGradient id="Gradient_bez_nazwy_14" x1="40.33" y1="10.09" x2="21.66" y2="16.61" gradientUnits="userSpaceOnUse"><stop offset="0" stop-color="#785aa5"/><stop offset="0.65" stop-color="#c3497a"/><stop offset="1" stop-color="#ee4061"/></linearGradient><linearGradient id="Gradient_bez_nazwy_16" x1="5.61" y1="17.08" x2="32.55" y2="27.79" gradientUnits="userSpaceOnUse"><stop offset="0" stop-color="#785aa5"/><stop offset="0.6" stop-color="#c3497a"/><stop offset="0.93" stop-color="#ee4061"/></linearGradient></defs><title>Zasób 2</title><g id="Warstwa_2"><g id="Warstwa_1-2"><polygon class="cls-1" points="27.86 11 8.08 21.99 8.08 11 27.86 0 27.86 11"/><polygon class="cls-2" points="27.86 11 47.64 21.99 47.64 11 27.86 0 27.86 11"/><polygon class="cls-3" points="47.64 21.99 27.86 32.99 27.86 21.99 47.64 11 47.64 21.99"/><polygon class="cls-4" points="8.08 21.99 27.86 32.99 27.86 21.99 8.08 11 8.08 21.99"/><path class="cls-5" d="M1.94,14.72v1.19H4.28v1.64H1.94v2.73H0V12.87H4.78v1.85Z"/><path class="cls-5" d="M5.62,12.89h2v7.38h-2Z"/><path class="cls-5" d="M16.45,16.75a3.62,3.62,0,0,1-3.79,3.7,4,4,0,0,1-4.12-3.86,4,4,0,0,1,4.07-3.88,4.34,4.34,0,0,1,2.63,1l-1.08,1.49a2.35,2.35,0,0,0-1.55-.63,2,2,0,1,0,.13,4.08c.89,0,1.53-.43,1.55-1.14H12.61V16h3.78A4.56,4.56,0,0,1,16.45,16.75Z"/><path class="cls-5" d="M23.52,12.89v7.38H21.57V17.49H19.38v2.78h-2V12.89h2v2.77h2.19V12.89Z"/><path class="cls-5" d="M29.87,14.72H28.1v5.55h-2V14.72H24.36V12.89h5.51Z"/><path class="cls-5" d="M30,16.58a3.9,3.9,0,0,1,4.06-3.86,4.27,4.27,0,0,1,2.73,1.12l-1.13,1.44a2.49,2.49,0,0,0-1.59-.68,2,2,0,1,0-.05,4,2.46,2.46,0,0,0,1.65-.72l1.12,1.49A4.08,4.08,0,0,1,34,20.44,3.91,3.91,0,0,1,30,16.58Z"/><path class="cls-5" d="M42.43,18.43v1.84H37.65V12.89h2v5.54Z"/><path class="cls-5" d="M43.21,17.59v-4.7h2v4.7a1,1,0,0,0,1.08,1,1.07,1.07,0,0,0,1.1-1v-4.7h2v4.7a3.07,3.07,0,0,1-6.12,0Z"/><path class="cls-5" d="M56.16,18a2.33,2.33,0,0,1-2.46,2.25H50.55V12.89H53a2.14,2.14,0,0,1,2.32,1.92c0,.76-.51,1.31-.81,1.31A1.85,1.85,0,0,1,56.16,18ZM52.92,14.6h-.48v1.15h.47c.42,0,.74-.21.74-.59S53.34,14.6,52.92,14.6Zm1.37,3.19c0-.43-.32-.69-.87-.69h-1v1.4h1C53.86,18.49,54.29,18.27,54.29,17.79Z"/></g></g></svg>
